<?xml version="1.0" encoding="UTF-8"?>
<svg xmlns="http://www.w3.org/2000/svg" xmlns:xlink="http://www.w3.org/1999/xlink" width="150pt" height="149.999998pt" viewBox="0 0 150 149.999998" version="1.2">
<g id="surface1">
<path style=" stroke:none;fill-rule:nonzero;fill:rgb(100%,100%,100%);fill-opacity:1;" d="M 75 4.246094 C 73.84375 4.246094 72.683594 4.273438 71.527344 4.332031 C 70.371094 4.386719 69.21875 4.472656 68.066406 4.585938 C 66.914062 4.699219 65.761719 4.839844 64.617188 5.011719 C 63.472656 5.179688 62.332031 5.378906 61.195312 5.605469 C 60.0625 5.832031 58.929688 6.085938 57.808594 6.367188 C 56.683594 6.648438 55.570312 6.957031 54.460938 7.292969 C 53.351562 7.628906 52.253906 7.992188 51.164062 8.382812 C 50.074219 8.769531 48.992188 9.1875 47.921875 9.632812 C 46.855469 10.074219 45.796875 10.542969 44.75 11.039062 C 43.703125 11.535156 42.667969 12.054688 41.644531 12.601562 C 40.625 13.144531 39.617188 13.714844 38.625 14.3125 C 37.632812 14.90625 36.652344 15.527344 35.691406 16.167969 C 34.726562 16.8125 33.78125 17.480469 32.851562 18.167969 C 31.921875 18.859375 31.007812 19.570312 30.113281 20.304688 C 29.21875 21.039062 28.34375 21.796875 27.484375 22.574219 C 26.625 23.351562 25.789062 24.148438 24.96875 24.96875 C 24.148438 25.789062 23.351562 26.625 22.574219 27.484375 C 21.796875 28.34375 21.039062 29.21875 20.304688 30.113281 C 19.570312 31.007812 18.859375 31.921875 18.167969 32.851562 C 17.480469 33.78125 16.8125 34.726562 16.167969 35.691406 C 15.527344 36.652344 14.90625 37.632812 14.3125 38.625 C 13.714844 39.617188 13.144531 40.625 12.601562 41.644531 C 12.054688 42.667969 11.535156 43.703125 11.039062 44.75 C 10.542969 45.796875 10.074219 46.855469 9.632812 47.921875 C 9.1875 48.992188 8.769531 50.074219 8.382812 51.164062 C 7.992188 52.253906 7.628906 53.351562 7.292969 54.460938 C 6.957031 55.570312 6.648438 56.683594 6.367188 57.808594 C 6.085938 58.929688 5.832031 60.0625 5.605469 61.195312 C 5.378906 62.332031 5.179688 63.472656 5.011719 64.617188 C 4.839844 65.761719 4.699219 66.914062 4.585938 68.066406 C 4.472656 69.21875 4.386719 70.371094 4.332031 71.527344 C 4.273438 72.683594 4.246094 73.84375 4.246094 75 C 4.246094 76.15625 4.273438 77.316406 4.332031 78.472656 C 4.386719 79.628906 4.472656 80.78125 4.585938 81.933594 C 4.699219 83.085938 4.839844 84.238281 5.011719 85.382812 C 5.179688 86.527344 5.378906 87.667969 5.605469 88.804688 C 5.832031 89.9375 6.085938 91.070312 6.367188 92.191406 C 6.648438 93.316406 6.957031 94.429688 7.292969 95.539062 C 7.628906 96.648438 7.992188 97.746094 8.382812 98.835938 C 8.769531 99.925781 9.1875 101.007812 9.632812 102.078125 C 10.074219 103.144531 10.542969 104.203125 11.039062 105.25 C 11.535156 106.296875 12.054688 107.332031 12.601562 108.355469 C 13.144531 109.375 13.714844 110.382812 14.3125 111.375 C 14.90625 112.367188 15.527344 113.347656 16.167969 114.308594 C 16.8125 115.273438 17.480469 116.21875 18.167969 117.148438 C 18.859375 118.078125 19.570312 118.992188 20.304688 119.886719 C 21.039062 120.78125 21.796875 121.65625 22.574219 122.515625 C 23.351562 123.375 24.148438 124.210938 24.96875 125.03125 C 25.789062 125.851562 26.625 126.648438 27.484375 127.425781 C 28.34375 128.203125 29.21875 128.960938 30.113281 129.695312 C 31.007812 130.429688 31.921875 131.140625 32.851562 131.832031 C 33.78125 132.519531 34.726562 133.1875 35.691406 133.832031 C 36.652344 134.472656 37.632812 135.09375 38.625 135.6875 C 39.617188 136.285156 40.625 136.855469 41.644531 137.398438 C 42.667969 137.945312 43.703125 138.464844 44.75 138.960938 C 45.796875 139.457031 46.855469 139.925781 47.921875 140.367188 C 48.992188 140.8125 50.074219 141.230469 51.164062 141.617188 C 52.253906 142.007812 53.351562 142.371094 54.460938 142.707031 C 55.570312 143.042969 56.683594 143.351562 57.808594 143.632812 C 58.929688 143.914062 60.0625 144.167969 61.195312 144.394531 C 62.332031 144.621094 63.472656 144.820312 64.617188 144.988281 C 65.761719 145.160156 66.914062 145.300781 68.066406 145.414062 C 69.21875 145.527344 70.371094 145.613281 71.527344 145.667969 C 72.683594 145.726562 73.84375 145.753906 75 145.753906 C 76.15625 145.753906 77.316406 145.726562 78.472656 145.667969 C 79.628906 145.613281 80.78125 145.527344 81.933594 145.414062 C 83.085938 145.300781 84.238281 145.160156 85.382812 144.988281 C 86.527344 144.820312 87.667969 144.621094 88.804688 144.394531 C 89.9375 144.167969 91.070312 143.914062 92.191406 143.632812 C 93.316406 143.351562 94.429688 143.042969 95.539062 142.707031 C 96.648438 142.371094 97.746094 142.007812 98.835938 141.617188 C 99.925781 141.230469 101.007812 140.8125 102.078125 140.367188 C 103.144531 139.925781 104.203125 139.457031 105.25 138.960938 C 106.296875 138.464844 107.332031 137.945312 108.355469 137.398438 C 109.375 136.855469 110.382812 136.285156 111.375 135.6875 C 112.367188 135.09375 113.347656 134.472656 114.308594 133.832031 C 115.273438 133.1875 116.21875 132.519531 117.148438 131.832031 C 118.078125 131.140625 118.992188 130.429688 119.886719 129.695312 C 120.78125 128.960938 121.65625 128.203125 122.515625 127.425781 C 123.375 126.648438 124.210938 125.851562 125.03125 125.03125 C 125.851562 124.210938 126.648438 123.375 127.425781 122.515625 C 128.203125 121.65625 128.960938 120.78125 129.695312 119.886719 C 130.429688 118.992188 131.140625 118.078125 131.832031 117.148438 C 132.519531 116.21875 133.1875 115.273438 133.832031 114.308594 C 134.472656 113.347656 135.09375 112.367188 135.6875 111.375 C 136.285156 110.382812 136.855469 109.375 137.398438 108.355469 C 137.945312 107.332031 138.464844 106.296875 138.960938 105.25 C 139.457031 104.203125 139.925781 103.144531 140.367188 102.078125 C 140.8125 101.007812 141.230469 99.925781 141.617188 98.835938 C 142.007812 97.746094 142.371094 96.648438 142.707031 95.539062 C 143.042969 94.429688 143.351562 93.316406 143.632812 92.191406 C 143.914062 91.070312 144.167969 89.9375 144.394531 88.804688 C 144.621094 87.667969 144.820312 86.527344 144.988281 85.382812 C 145.160156 84.238281 145.300781 83.085938 145.414062 81.933594 C 145.527344 80.78125 145.613281 79.628906 145.667969 78.472656 C 145.726562 77.316406 145.753906 76.15625 145.753906 75 C 145.753906 73.84375 145.726562 72.683594 145.667969 71.527344 C 145.613281 70.371094 145.527344 69.21875 145.414062 68.066406 C 145.300781 66.914062 145.160156 65.761719 144.988281 64.617188 C 144.820312 63.472656 144.621094 62.332031 144.394531 61.195312 C 144.167969 60.0625 143.914062 58.929688 143.632812 57.808594 C 143.351562 56.683594 143.042969 55.570312 142.707031 54.460938 C 142.371094 53.351562 142.007812 52.253906 141.617188 51.164062 C 141.230469 50.074219 140.8125 48.992188 140.367188 47.921875 C 139.925781 46.855469 139.457031 45.796875 138.960938 44.75 C 138.464844 43.703125 137.945312 42.667969 137.398438 41.644531 C 136.855469 40.625 136.285156 39.617188 135.6875 38.625 C 135.09375 37.632812 134.472656 36.652344 133.832031 35.691406 C 133.1875 34.726562 132.519531 33.78125 131.832031 32.851562 C 131.140625 31.921875 130.429688 31.007812 129.695312 30.113281 C 128.960938 29.21875 128.203125 28.34375 127.425781 27.484375 C 126.648438 26.625 125.851562 25.789062 125.03125 24.96875 C 124.210938 24.148438 123.375 23.351562 122.515625 22.574219 C 121.65625 21.796875 120.78125 21.039062 119.886719 20.304688 C 118.992188 19.570312 118.078125 18.859375 117.148438 18.167969 C 116.21875 17.480469 115.273438 16.8125 114.308594 16.167969 C 113.347656 15.527344 112.367188 14.90625 111.375 14.3125 C 110.382812 13.714844 109.375 13.144531 108.355469 12.601562 C 107.332031 12.054688 106.296875 11.535156 105.25 11.039062 C 104.203125 10.542969 103.144531 10.074219 102.078125 9.632812 C 101.007812 9.1875 99.925781 8.769531 98.835938 8.382812 C 97.746094 7.992188 96.648438 7.628906 95.539062 7.292969 C 94.429688 6.957031 93.316406 6.648438 92.191406 6.367188 C 91.070312 6.085938 89.9375 5.832031 88.804688 5.605469 C 87.667969 5.378906 86.527344 5.179688 85.382812 5.011719 C 84.238281 4.839844 83.085938 4.699219 81.933594 4.585938 C 80.78125 4.472656 79.628906 4.386719 78.472656 4.332031 C 77.316406 4.273438 76.15625 4.246094 75 4.246094 Z M 75 4.246094 "/>
<path style=" stroke:none;fill-rule:nonzero;fill:rgb(0.389099%,8.628845%,15.289307%);fill-opacity:1;" d="M 75 150 C 33.679688 150 0 116.320312 0 75 C 0 33.679688 33.679688 0 75 0 C 116.320312 0 150 33.679688 150 75 C 150 116.320312 116.320312 150 75 150 Z M 75 8.492188 C 38.347656 8.492188 8.492188 38.347656 8.492188 75 C 8.492188 111.652344 38.347656 141.507812 75 141.507812 C 111.652344 141.507812 141.507812 111.652344 141.507812 75 C 141.507812 38.347656 111.652344 8.492188 75 8.492188 Z M 75 8.492188 "/>
<path style=" stroke:none;fill-rule:nonzero;fill:rgb(0.389099%,8.628845%,15.289307%);fill-opacity:1;" d="M 106.839844 58.019531 L 43.160156 58.019531 C 40.753906 58.019531 38.914062 56.179688 38.914062 53.773438 C 38.914062 51.367188 40.753906 49.527344 43.160156 49.527344 L 106.839844 49.527344 C 109.246094 49.527344 111.085938 51.367188 111.085938 53.773438 C 111.085938 56.179688 109.246094 58.019531 106.839844 58.019531 Z M 106.839844 79.246094 L 43.160156 79.246094 C 40.753906 79.246094 38.914062 77.40625 38.914062 75 C 38.914062 72.59375 40.753906 70.753906 43.160156 70.753906 L 106.839844 70.753906 C 109.246094 70.753906 111.085938 72.59375 111.085938 75 C 111.085938 77.40625 109.246094 79.246094 106.839844 79.246094 Z M 106.839844 79.246094 "/>
<path style=" stroke:none;fill-rule:nonzero;fill:rgb(0.389099%,8.628845%,15.289307%);fill-opacity:1;" d="M 106.839844 100.472656 L 43.160156 100.472656 C 40.753906 100.472656 38.914062 98.632812 38.914062 96.226562 C 38.914062 93.820312 40.753906 91.980469 43.160156 91.980469 L 106.839844 91.980469 C 109.246094 91.980469 111.085938 93.820312 111.085938 96.226562 C 111.085938 98.632812 109.246094 100.472656 106.839844 100.472656 Z M 106.839844 100.472656 "/>
</g>
</svg>
